<?xml version="1.0" encoding="utf-8"?>
<!-- Generator: Adobe Illustrator 19.0.0, SVG Export Plug-In . SVG Version: 6.00 Build 0)  -->
<svg version="1.1" id="Layer_1" xmlns="http://www.w3.org/2000/svg" xmlns:xlink="http://www.w3.org/1999/xlink" x="0px" y="0px"
	 viewBox="0 0 24 24" style="enable-background:new 0 0 24 24;" xml:space="preserve">
<style type="text/css">
	.st0{fill-rule:evenodd;clip-rule:evenodd;fill:#10B9FF;}
	.st1{fill:#FFFFFF;}
	.st2{fill:#10B9FF;}
</style>
<path class="st0" d="M21.3,11L21.3,11l-1.7,0.4l0,0h-2.2V9l-3.3-3.3H8.8L6,2.1L5.5,2.4L3,4.3l1,1.4H0.5v11.6h19.1l0,0l1.7,0.4h2.1
	V11H21.3z M22.1,16.3h-0.6L20.4,16v-3.3l1.1-0.3h0.6V16.3z"/>
<g>
	<path class="st1" d="M10.7,14.9H5.5c-0.3,0-0.5-0.1-0.7-0.4c-0.1-0.3-0.1-0.6,0.1-0.8l3.4-3.9H4.8V8.2H10c0.3,0,0.5,0.1,0.7,0.4
		s0.1,0.6-0.1,0.8l-3.4,3.9h3.6C10.7,13.4,10.7,14.9,10.7,14.9z"/>
</g>
<rect x="8.9" y="16.9" class="st2" width="1.2" height="7.1"/>
</svg>
